<?xml version="1.0" standalone="no"?>
<!DOCTYPE svg PUBLIC "-//W3C//DTD SVG 20010904//EN"
 "http://www.w3.org/TR/2001/REC-SVG-20010904/DTD/svg10.dtd">
<svg version="1.0" xmlns="http://www.w3.org/2000/svg"
 width="750.000000pt" height="570.000000pt" viewBox="0 0 750.000000 570.000000"
 preserveAspectRatio="xMidYMid meet">

<g transform="translate(0.000000,570.000000) scale(0.100000,-0.100000)"
fill="#000000" stroke="none">
<path d="M3832 4856 c-61 -36 -281 -187 -319 -219 -105 -88 -188 -164 -231
-214 -28 -32 -65 -74 -82 -93 -52 -59 -154 -220 -203 -320 -88 -182 -117 -287
-140 -513 -14 -134 -7 -351 13 -434 5 -23 10 -54 10 -68 0 -44 26 -40 108 16
89 62 78 53 202 157 53 44 138 124 189 178 86 92 231 273 231 290 0 3 15 27
33 53 60 84 175 341 197 441 5 19 15 62 24 95 42 166 52 289 48 563 -2 75 -5
102 -14 101 -7 -1 -37 -15 -66 -33z"/>
<path d="M4433 3283 c-67 -81 -180 -207 -219 -243 -78 -71 -266 -220 -278
-220 -3 0 -36 -21 -73 -46 -173 -116 -468 -240 -711 -300 -135 -33 -130 -42
23 -51 101 -6 272 6 420 28 333 51 607 167 880 372 95 72 272 248 335 332 25
33 51 66 58 73 6 7 12 20 12 28 0 8 -6 16 -12 18 -34 10 -351 56 -386 56 -6 0
-28 -21 -49 -47z"/>
<path d="M1085 2048 c-22 -6 -62 -21 -90 -35 -107 -54 -147 -121 -148 -248 0
-67 4 -88 26 -131 28 -55 68 -94 120 -118 40 -19 187 -66 204 -66 25 0 125
-50 143 -72 43 -51 14 -118 -60 -143 -54 -18 -88 -16 -170 12 -46 16 -152 79
-158 94 -9 23 -42 3 -89 -55 -29 -36 -53 -69 -53 -74 0 -32 172 -133 263 -155
162 -38 321 -8 417 79 69 63 100 164 79 261 -27 125 -109 191 -299 243 -116
32 -180 62 -195 90 -21 40 -19 70 8 103 51 64 211 53 322 -23 17 -11 35 -20
41 -20 12 0 104 129 104 147 0 10 -123 75 -175 93 -87 30 -209 38 -290 18z"/>
<path d="M2024 1811 c-102 -18 -211 -99 -255 -190 -12 -25 -26 -54 -31 -64
-12 -25 -12 -230 0 -254 5 -10 17 -35 26 -56 49 -114 208 -208 349 -207 89 1
208 42 272 94 l30 25 -55 55 -55 55 -60 -29 c-105 -52 -217 -38 -287 37 -15
15 -30 40 -33 56 l-7 27 281 0 281 0 0 75 c0 94 -20 172 -60 230 -35 50 -111
112 -149 122 -14 3 -28 9 -31 13 -7 11 -169 20 -216 11z m149 -163 c61 -35
121 -118 100 -139 -6 -6 -77 -8 -174 -7 -155 3 -164 4 -167 23 -4 29 54 94
102 115 48 22 107 25 139 8z"/>
<path d="M3010 1814 c-38 -14 -101 -49 -111 -61 -6 -7 -20 -13 -30 -13 -15 0
-19 7 -19 35 l0 35 -100 0 -100 0 2 -377 3 -377 95 1 95 1 6 233 c6 280 13
305 84 349 45 28 133 28 163 0 53 -50 56 -68 60 -333 l4 -248 96 3 97 3 -3
260 c-4 278 -9 315 -54 382 -43 64 -112 101 -200 107 -40 3 -80 3 -88 0z"/>
<path d="M3870 1813 c-118 -12 -242 -92 -298 -195 -85 -152 -61 -340 57 -458
96 -95 254 -141 375 -109 93 25 235 118 225 146 -5 13 -97 113 -104 113 -3 0
-24 -14 -48 -31 -58 -42 -102 -59 -154 -59 -116 0 -203 92 -203 216 0 188 209
270 376 148 l31 -23 24 27 c13 15 37 44 52 65 l28 37 -28 25 c-26 22 -108 67
-158 86 -26 10 -130 17 -175 12z"/>
<path d="M4790 1812 c-14 -2 -29 -8 -34 -13 -6 -5 -16 -9 -24 -9 -8 0 -36 -16
-62 -35 -26 -19 -53 -35 -59 -35 -6 0 -11 19 -11 45 l0 45 -100 0 -100 0 2
-377 3 -378 95 0 95 0 5 200 c3 110 8 207 12 215 3 8 9 27 12 42 7 33 55 84
93 100 16 6 46 14 68 17 l40 6 3 84 c2 46 -1 87 -5 91 -4 3 -19 4 -33 2z"/>
<path d="M5265 1814 c-29 -5 -43 -10 -115 -43 -48 -22 -134 -111 -158 -163
-38 -83 -42 -99 -42 -176 0 -187 106 -321 301 -381 79 -24 222 -4 302 42 112
66 197 209 197 332 0 159 -96 301 -247 366 -48 20 -174 32 -238 23z m149 -178
c55 -23 94 -65 115 -122 25 -66 26 -109 5 -160 -60 -145 -197 -188 -305 -96
-129 110 -93 329 62 385 45 16 71 15 123 -7z"/>
<path d="M6295 1811 c-47 -12 -107 -40 -127 -58 -25 -22 -48 -9 -48 27 l0 30
-100 0 -100 0 2 -512 3 -513 98 -3 97 -3 0 175 c0 96 4 177 9 180 5 4 22 -4
38 -17 120 -100 268 -101 390 -1 45 37 113 131 113 157 0 7 5 18 11 24 7 7 12
57 12 130 1 113 0 121 -31 184 -34 72 -103 144 -169 178 -45 22 -151 35 -198
22z m83 -177 c35 -17 60 -40 81 -71 28 -42 31 -54 31 -128 0 -93 -13 -128 -65
-174 -104 -91 -236 -49 -292 94 -40 104 18 243 122 290 44 20 65 18 123 -11z"/>
</g>
</svg>
